<svg width="10" height="18" viewBox="0 0 10 18" fill="none" xmlns="http://www.w3.org/2000/svg">
<path fill-rule="evenodd" clip-rule="evenodd" d="M2.25703e-06 0.25L1.9346e-06 2.75L2.5 2.75L2.5 0.25L2.25703e-06 0.25ZM4.76837e-07 17.75L7.9927e-07 15.25L2.5 15.25L2.5 17.75L4.76837e-07 17.75ZM2.5 15.25L2.5 12.75L5 12.75L5 15.25L2.5 15.25ZM7.5 10.25L7.5 12.75L5 12.75L5 10.25L7.5 10.25ZM7.5 7.75L10 7.75L10 10.25L7.5 10.25L7.5 7.75ZM5 5.25L5 7.75L7.5 7.75L7.5 5.25L5 5.25ZM5 5.25L2.5 5.25L2.5 2.75L5 2.75L5 5.25Z" fill="white"/>
</svg>
