<svg width="1133" height="394" viewBox="0 0 1133 394" fill="none" xmlns="http://www.w3.org/2000/svg">
<g filter="url(#filter0_f_8_666)">
<g filter="url(#filter1_f_8_666)">
<path d="M502.825 -163.512C530.947 -142.791 73.232 147.39 -28.3973 218.078C-130.027 288.765 -235.211 329.272 -263.332 308.551C-291.454 287.83 -226.954 223.069 40.5507 51.3982C292.257 -98.8178 455.408 -175.993 502.825 -163.512Z" fill="#FFA000"/>
</g>
<path d="M-240.523 216.217C-246.345 155.208 -170.969 67.7669 -60.2874 3.86478C50.3942 -60.0373 247.401 -125.459 270.492 -85.4651C293.582 -45.4707 203.044 -25.9749 -21.7536 184.951C-166.054 320.347 -233.468 290.145 -240.523 216.217Z" fill="url(#paint0_linear_8_666)"/>
<g filter="url(#filter2_f_8_666)">
<path d="M-67.7208 52.5096C-75.1749 -0.936087 -17.1028 -73.8694 70.9962 -124.733C159.095 -175.597 247.307 -187.744 268.023 -151.863C288.738 -115.982 218.287 -42.9783 110.576 34.8348C10.9249 104.937 -58.6882 117.273 -67.7208 52.5096Z" fill="url(#paint1_linear_8_666)"/>
</g>
<ellipse cx="293.512" cy="-159.723" rx="184.198" ry="80.9564" transform="rotate(150 293.512 -159.723)" fill="#C0618C"/>
<g filter="url(#filter3_f_8_666)">
<path d="M117.49 -6.63632C97.9842 -40.421 443.707 -208.511 520.751 -252.992C597.796 -297.474 676.065 -306.146 695.571 -272.361C715.076 -238.576 624.1 -212.677 460.429 -82.6216C352.935 2.79483 151.39 24.6315 117.49 -6.63632Z" fill="url(#paint2_linear_8_666)"/>
</g>
<g filter="url(#filter4_f_8_666)">
<ellipse cx="431.811" cy="-227.177" rx="188.893" ry="82.3562" transform="rotate(150 431.811 -227.177)" fill="#D07885"/>
</g>
<g filter="url(#filter5_f_8_666)">
<path d="M552.423 -196.62C545.127 -246.251 612.681 -321.724 703.308 -365.193C793.935 -408.663 873.317 -403.668 880.613 -354.038C887.908 -304.407 874.35 -264.641 783.723 -221.172C693.096 -177.702 559.719 -146.989 552.423 -196.62Z" fill="url(#paint3_linear_8_666)"/>
</g>
</g>
<defs>
<filter id="filter0_f_8_666" x="-427.548" y="-594.38" width="1420.08" height="1020.76" filterUnits="userSpaceOnUse" color-interpolation-filters="sRGB">
<feFlood flood-opacity="0" result="BackgroundImageFix"/>
<feBlend mode="normal" in="SourceGraphic" in2="BackgroundImageFix" result="shape"/>
<feGaussianBlur stdDeviation="22.5" result="effect1_foregroundBlur_8_666"/>
</filter>
<filter id="filter1_f_8_666" x="-349.394" y="-244.821" width="933.461" height="638.792" filterUnits="userSpaceOnUse" color-interpolation-filters="sRGB">
<feFlood flood-opacity="0" result="BackgroundImageFix"/>
<feBlend mode="normal" in="SourceGraphic" in2="BackgroundImageFix" result="shape"/>
<feGaussianBlur stdDeviation="40" result="effect1_foregroundBlur_8_666"/>
</filter>
<filter id="filter2_f_8_666" x="-128.363" y="-232.481" width="460" height="387.351" filterUnits="userSpaceOnUse" color-interpolation-filters="sRGB">
<feFlood flood-opacity="0" result="BackgroundImageFix"/>
<feBlend mode="normal" in="SourceGraphic" in2="BackgroundImageFix" result="shape"/>
<feGaussianBlur stdDeviation="30" result="effect1_foregroundBlur_8_666"/>
</filter>
<filter id="filter3_f_8_666" x="-33.304" y="-442.964" width="881.484" height="599.879" filterUnits="userSpaceOnUse" color-interpolation-filters="sRGB">
<feFlood flood-opacity="0" result="BackgroundImageFix"/>
<feBlend mode="normal" in="SourceGraphic" in2="BackgroundImageFix" result="shape"/>
<feGaussianBlur stdDeviation="75" result="effect1_foregroundBlur_8_666"/>
</filter>
<filter id="filter4_f_8_666" x="63.0818" y="-545.535" width="737.458" height="636.716" filterUnits="userSpaceOnUse" color-interpolation-filters="sRGB">
<feFlood flood-opacity="0" result="BackgroundImageFix"/>
<feBlend mode="normal" in="SourceGraphic" in2="BackgroundImageFix" result="shape"/>
<feGaussianBlur stdDeviation="100" result="effect1_foregroundBlur_8_666"/>
</filter>
<filter id="filter5_f_8_666" x="301.884" y="-644.79" width="830.416" height="723.691" filterUnits="userSpaceOnUse" color-interpolation-filters="sRGB">
<feFlood flood-opacity="0" result="BackgroundImageFix"/>
<feBlend mode="normal" in="SourceGraphic" in2="BackgroundImageFix" result="shape"/>
<feGaussianBlur stdDeviation="125" result="effect1_foregroundBlur_8_666"/>
</filter>
<linearGradient id="paint0_linear_8_666" x1="-170.117" y1="67.4682" x2="57.816" y2="221.598" gradientUnits="userSpaceOnUse">
<stop stop-color="#833693"/>
<stop offset="0.994792" stop-color="#F9BB56" stop-opacity="0.5"/>
</linearGradient>
<linearGradient id="paint1_linear_8_666" x1="22.2222" y1="-64.7765" x2="149.587" y2="33.3938" gradientUnits="userSpaceOnUse">
<stop stop-color="#FFDFFA"/>
<stop offset="0.947917" stop-color="#FFD009"/>
<stop offset="1" stop-color="#903E93"/>
</linearGradient>
<linearGradient id="paint2_linear_8_666" x1="576.54" y1="-142.192" x2="514.615" y2="-249.45" gradientUnits="userSpaceOnUse">
<stop stop-color="#903F93"/>
<stop offset="0.494792" stop-color="#D46B96"/>
<stop offset="1" stop-color="#FDBF64"/>
</linearGradient>
<linearGradient id="paint3_linear_8_666" x1="457.315" y1="-178.164" x2="662.687" y2="-47.3391" gradientUnits="userSpaceOnUse">
<stop stop-color="#FFD009"/>
<stop offset="0.677083" stop-color="#C68456"/>
<stop offset="1" stop-color="#914093"/>
</linearGradient>
</defs>
</svg>
