<svg width="1146" height="400" viewBox="0 0 1146 400" fill="none" xmlns="http://www.w3.org/2000/svg">
<g filter="url(#filter0_f_8_731)">
<g filter="url(#filter1_f_8_731)">
<path d="M662.278 368.928C640.185 343.229 1153.84 170.502 1269.42 126.257C1385.01 82.0116 1496.62 66.9765 1518.71 92.675C1540.8 118.373 1462.56 165.197 1161.85 268.103C881.685 354.272 705.043 391.106 662.278 368.928Z" fill="#FFA000"/>
</g>
<path d="M1473.99 174.633C1464.64 233.379 1370.32 299.175 1247.65 335.039C1124.98 370.903 918.498 389.225 906.001 346.478C893.503 303.731 985.799 305.267 1254.87 156C1427.58 60.1828 1485.33 103.448 1473.99 174.633Z" fill="url(#paint0_linear_8_731)"/>
<g filter="url(#filter2_f_8_731)">
<path d="M1266.78 290.853C1260.86 342.834 1186.82 398.768 1089.18 427.314C991.538 455.861 903.296 447.913 892.083 409.563C880.871 371.213 966.891 317.933 1090.1 268.313C1203.63 224.184 1273.95 227.865 1266.78 290.853Z" fill="url(#paint1_linear_8_731)"/>
</g>
<ellipse cx="865.517" cy="411.364" rx="184.198" ry="78.0727" transform="rotate(-16.297 865.517 411.364)" fill="#C0618C"/>
<g filter="url(#filter3_f_8_731)">
<path d="M1073.24 305.856C1083.8 341.966 708.368 424.307 622.98 449.272C537.591 474.236 459.811 465.201 449.254 429.091C438.696 392.981 532.988 388.582 723.117 302.053C847.987 245.223 1048.15 268.953 1073.24 305.856Z" fill="url(#paint2_linear_8_731)"/>
</g>
<g filter="url(#filter4_f_8_731)">
<path d="M321.573 407.939C326.306 391.93 636.402 349.498 709.115 337.055C781.828 324.612 836.936 327.503 832.203 343.512C827.469 359.521 769.043 377.027 586.53 402.83C421.778 421.644 327.448 424.088 321.573 407.939Z" fill="#FFC203"/>
</g>
<ellipse cx="715.282" cy="444.504" rx="188.893" ry="79.4227" transform="rotate(-16.297 715.282 444.504)" fill="#D07885"/>
<ellipse cx="618.799" cy="434.972" rx="127.132" ry="53.5484" transform="rotate(-16.297 618.799 434.972)" fill="white"/>
<g filter="url(#filter5_f_8_731)">
<path d="M606.209 389.212C601.074 437.564 517.249 493.806 418.981 514.832C320.713 535.858 245.213 513.706 250.348 465.353C255.483 417.001 278.352 382.525 376.62 361.499C474.889 340.473 611.344 340.86 606.209 389.212Z" fill="url(#paint3_linear_8_731)"/>
</g>
</g>
<defs>
<filter id="filter0_f_8_731" x="152.683" y="-25.7181" width="1484.16" height="736.358" filterUnits="userSpaceOnUse" color-interpolation-filters="sRGB">
<feFlood flood-opacity="0" result="BackgroundImageFix"/>
<feBlend mode="normal" in="SourceGraphic" in2="BackgroundImageFix" result="shape"/>
<feGaussianBlur stdDeviation="22.5" result="effect1_foregroundBlur_8_731"/>
</filter>
<filter id="filter1_f_8_731" x="581.586" y="0.126953" width="1020.62" height="455.118" filterUnits="userSpaceOnUse" color-interpolation-filters="sRGB">
<feFlood flood-opacity="0" result="BackgroundImageFix"/>
<feBlend mode="normal" in="SourceGraphic" in2="BackgroundImageFix" result="shape"/>
<feGaussianBlur stdDeviation="40" result="effect1_foregroundBlur_8_731"/>
</filter>
<filter id="filter2_f_8_731" x="831.102" y="178.81" width="496.175" height="325.635" filterUnits="userSpaceOnUse" color-interpolation-filters="sRGB">
<feFlood flood-opacity="0" result="BackgroundImageFix"/>
<feBlend mode="normal" in="SourceGraphic" in2="BackgroundImageFix" result="shape"/>
<feGaussianBlur stdDeviation="30" result="effect1_foregroundBlur_8_731"/>
</filter>
<filter id="filter3_f_8_731" x="298.455" y="118.071" width="925.002" height="495.312" filterUnits="userSpaceOnUse" color-interpolation-filters="sRGB">
<feFlood flood-opacity="0" result="BackgroundImageFix"/>
<feBlend mode="normal" in="SourceGraphic" in2="BackgroundImageFix" result="shape"/>
<feGaussianBlur stdDeviation="75" result="effect1_foregroundBlur_8_731"/>
</filter>
<filter id="filter4_f_8_731" x="297.573" y="305.327" width="558.913" height="137.321" filterUnits="userSpaceOnUse" color-interpolation-filters="sRGB">
<feFlood flood-opacity="0" result="BackgroundImageFix"/>
<feBlend mode="normal" in="SourceGraphic" in2="BackgroundImageFix" result="shape"/>
<feGaussianBlur stdDeviation="12" result="effect1_foregroundBlur_8_731"/>
</filter>
<filter id="filter5_f_8_731" x="0.101074" y="98.2426" width="856.249" height="674.533" filterUnits="userSpaceOnUse" color-interpolation-filters="sRGB">
<feFlood flood-opacity="0" result="BackgroundImageFix"/>
<feBlend mode="normal" in="SourceGraphic" in2="BackgroundImageFix" result="shape"/>
<feGaussianBlur stdDeviation="125" result="effect1_foregroundBlur_8_731"/>
</filter>
<linearGradient id="paint0_linear_8_731" x1="1369.42" y1="299.269" x2="1192.67" y2="98.9484" gradientUnits="userSpaceOnUse">
<stop stop-color="#833693"/>
<stop offset="0.994792" stop-color="#F9BB56" stop-opacity="0.5"/>
</linearGradient>
<linearGradient id="paint1_linear_8_731" x1="1151.04" y1="381.559" x2="1055.18" y2="258.648" gradientUnits="userSpaceOnUse">
<stop stop-color="#260040"/>
<stop offset="0.244792" stop-color="#903E93"/>
<stop offset="1" stop-color="#FFD009"/>
</linearGradient>
<linearGradient id="paint2_linear_8_731" x1="596.264" y1="332.643" x2="629.78" y2="447.283" gradientUnits="userSpaceOnUse">
<stop stop-color="#903F93"/>
<stop offset="0.494792" stop-color="#D46B96"/>
<stop offset="1" stop-color="#FDBF64"/>
</linearGradient>
<linearGradient id="paint3_linear_8_731" x1="702.666" y1="392.731" x2="541.436" y2="219.573" gradientUnits="userSpaceOnUse">
<stop stop-color="#FFD009"/>
<stop offset="0.677083" stop-color="#C68456"/>
<stop offset="1" stop-color="#914093"/>
</linearGradient>
</defs>
</svg>
